<svg xmlns="http://www.w3.org/2000/svg" width="18" height="19.497" viewBox="0 0 18 19.497">
  <path id="_8673338_ic_fluent_home_filled_icon" data-name="8673338_ic_fluent_home_filled_icon" d="M10.549,2.533a2.25,2.25,0,0,1,2.9,0L20.2,8.228a2.25,2.25,0,0,1,.8,1.72v9.8a1.75,1.75,0,0,1-1.75,1.75h-3a1.75,1.75,0,0,1-1.75-1.75v-5a.75.75,0,0,0-.75-.75h-3.5a.75.75,0,0,0-.75.75v5A1.75,1.75,0,0,1,7.75,21.5h-3A1.75,1.75,0,0,1,3,19.75v-9.8a2.25,2.25,0,0,1,.8-1.72Z" transform="translate(-3 -2.003)" fill="#1f5260"/>
</svg>
