<svg xmlns="http://www.w3.org/2000/svg" width="18.3" height="14.579" viewBox="0 0 18.3 14.579">
  <g id="Group_5" data-name="Group 5" transform="translate(-1102.85 -465)">
    <g id="Group_3" data-name="Group 3" transform="translate(-49 -1)">
      <rect id="Rectangle_11" data-name="Rectangle 11" width="2" height="2" transform="translate(1156 471)" fill="#1f5260"/>
      <rect id="Rectangle_17" data-name="Rectangle 17" width="2" height="2" transform="translate(1156 466)" fill="#1f5260"/>
      <rect id="Rectangle_12" data-name="Rectangle 12" width="2" height="2" transform="translate(1156 475)" fill="#1f5260"/>
      <rect id="Rectangle_13" data-name="Rectangle 13" width="2" height="2" transform="translate(1160 471)" fill="#1f5260"/>
      <rect id="Rectangle_14" data-name="Rectangle 14" width="2" height="2" transform="translate(1160 475)" fill="#1f5260"/>
      <rect id="Rectangle_15" data-name="Rectangle 15" width="2" height="2" transform="translate(1164 471)" fill="#1f5260"/>
      <rect id="Rectangle_18" data-name="Rectangle 18" width="2" height="2" transform="translate(1164 466)" fill="#1f5260"/>
      <rect id="Rectangle_16" data-name="Rectangle 16" width="2" height="2" transform="translate(1164 475)" fill="#1f5260"/>
      <path id="Path_6" data-name="Path 6" d="M18.714,6.571H3.286A1.286,1.286,0,0,0,2,7.857V18.143a1.286,1.286,0,0,0,1.286,1.286H18.714A1.286,1.286,0,0,0,20,18.143V7.857A1.286,1.286,0,0,0,18.714,6.571Z" transform="translate(1150 461)" fill="#1f5260" stroke="#1f5260" stroke-width="0.3"/>
    </g>
    <rect id="Rectangle_19" data-name="Rectangle 19" width="2" height="2" transform="translate(1107 470)" fill="#fff"/>
    <rect id="Rectangle_20" data-name="Rectangle 20" width="2" height="2" transform="translate(1107 474)" fill="#fff"/>
    <rect id="Rectangle_21" data-name="Rectangle 21" width="2" height="2" transform="translate(1111 470)" fill="#fff"/>
    <rect id="Rectangle_22" data-name="Rectangle 22" width="2" height="2" transform="translate(1111 474)" fill="#fff"/>
    <rect id="Rectangle_23" data-name="Rectangle 23" width="2" height="2" transform="translate(1115 470)" fill="#fff"/>
    <rect id="Rectangle_24" data-name="Rectangle 24" width="2" height="2" transform="translate(1115 474)" fill="#fff"/>
  </g>
</svg>
