<svg xmlns="http://www.w3.org/2000/svg" width="18" height="15.429" viewBox="0 0 18 15.429">
  <g id="_4177630_briefcase_job_suitcase_work_icon" data-name="4177630_briefcase_job_suitcase_work_icon" transform="translate(-2 -4)">
    <path id="Path_4" data-name="Path 4" d="M18.714,6.571h-4.5V5.286A1.286,1.286,0,0,0,12.929,4H9.071A1.286,1.286,0,0,0,7.786,5.286V6.571h-4.5A1.286,1.286,0,0,0,2,7.857V18.143a1.286,1.286,0,0,0,1.286,1.286H18.714A1.286,1.286,0,0,0,20,18.143V7.857A1.286,1.286,0,0,0,18.714,6.571ZM9.071,5.286h3.857V6.571H9.071Zm9.643,8.357h0Zm-15.429,4.5V14.929H18.714v3.214Z" fill="#1f5260"/>
    <path id="Path_5" data-name="Path 5" d="M14.643,17.286h1.286a.643.643,0,1,0,0-1.286H14.643a.643.643,0,0,0,0,1.286Z" transform="translate(-4.286 -4.286)" fill="#fff"/>
  </g>
</svg>
