<svg xmlns="http://www.w3.org/2000/svg" width="18" height="19.497" viewBox="0 0 18 19.497">
  <g id="_8673338_ic_fluent_home_filled_icon" data-name="8673338_ic_fluent_home_filled_icon" transform="translate(-3 -2.003)" fill="none">
    <path d="M10.549,2.533a2.25,2.25,0,0,1,2.9,0L20.2,8.228a2.25,2.25,0,0,1,.8,1.72v9.8a1.75,1.75,0,0,1-1.75,1.75h-3a1.75,1.75,0,0,1-1.75-1.75v-5a.75.75,0,0,0-.75-.75h-3.5a.75.75,0,0,0-.75.75v5A1.75,1.75,0,0,1,7.75,21.5h-3A1.75,1.75,0,0,1,3,19.75v-9.8a2.25,2.25,0,0,1,.8-1.72Z" stroke="none"/>
    <path d="M 12 4.0029296875 C 11.95833969116211 4.0029296875 11.89657020568848 4.013149261474609 11.83883953094482 4.061849594116211 L 5.088800430297852 9.756389617919922 C 5.032360076904297 9.803999900817871 5 9.873640060424805 5 9.947469711303711 L 5 19.50040054321289 L 7.5 19.50040054321289 L 7.5 14.75039958953857 C 7.5 13.23404026031494 8.733639717102051 12.00039958953857 10.25 12.00039958953857 L 13.75 12.00039958953857 C 15.26636028289795 12.00039958953857 16.5 13.23404026031494 16.5 14.75039958953857 L 16.5 19.50040054321289 L 19 19.50040054321289 L 19 9.947469711303711 C 19 9.873660087585449 18.96764945983887 9.80403995513916 18.91115951538086 9.756389617919922 L 12.16112041473389 4.061819076538086 C 12.10342979431152 4.013149261474609 12.04166030883789 4.0029296875 12 4.0029296875 M 12 2.0029296875 C 12.51589965820312 2.0029296875 13.03180027008057 2.179679870605469 13.4507999420166 2.533180236816406 L 20.2007999420166 8.227720260620117 C 20.70759963989258 8.655229568481445 21 9.284469604492188 21 9.947469711303711 L 21 19.75040054321289 C 21 20.71689987182617 20.21649932861328 21.50040054321289 19.25 21.50040054321289 L 16.25 21.50040054321289 C 15.2834997177124 21.50040054321289 14.5 20.71689987182617 14.5 19.75040054321289 L 14.5 14.75039958953857 C 14.5 14.33619976043701 14.16419982910156 14.00039958953857 13.75 14.00039958953857 L 10.25 14.00039958953857 C 9.835789680480957 14.00039958953857 9.5 14.33619976043701 9.5 14.75039958953857 L 9.5 19.75040054321289 C 9.5 20.71689987182617 8.716500282287598 21.50040054321289 7.75 21.50040054321289 L 4.75 21.50040054321289 C 3.783500671386719 21.50040054321289 3 20.71689987182617 3 19.75040054321289 L 3 9.947469711303711 C 3 9.284469604492188 3.292409896850586 8.655229568481445 3.799160003662109 8.227720260620117 L 10.5492000579834 2.533180236816406 C 10.96819972991943 2.179679870605469 11.48410034179688 2.0029296875 12 2.0029296875 Z" stroke="none" fill="#1f5260"/>
  </g>
</svg>
