<svg xmlns="http://www.w3.org/2000/svg" width="18.3" height="14.579" viewBox="0 0 18.3 14.579">
  <g id="Group_4" data-name="Group 4" transform="translate(-1131.85 -465)">
    <g id="Group_2" data-name="Group 2" transform="translate(-20 -1)">
      <rect id="Rectangle_11" data-name="Rectangle 11" width="2" height="2" transform="translate(1156 471)" fill="#1f5260"/>
      <rect id="Rectangle_17" data-name="Rectangle 17" width="2" height="2" transform="translate(1156 466)" fill="#1f5260"/>
      <rect id="Rectangle_12" data-name="Rectangle 12" width="2" height="2" transform="translate(1156 475)" fill="#1f5260"/>
      <rect id="Rectangle_13" data-name="Rectangle 13" width="2" height="2" transform="translate(1160 471)" fill="#1f5260"/>
      <rect id="Rectangle_14" data-name="Rectangle 14" width="2" height="2" transform="translate(1160 475)" fill="#1f5260"/>
      <rect id="Rectangle_15" data-name="Rectangle 15" width="2" height="2" transform="translate(1164 471)" fill="#1f5260"/>
      <rect id="Rectangle_18" data-name="Rectangle 18" width="2" height="2" transform="translate(1164 466)" fill="#1f5260"/>
      <rect id="Rectangle_16" data-name="Rectangle 16" width="2" height="2" transform="translate(1164 475)" fill="#1f5260"/>
      <path id="Path_6" data-name="Path 6" d="M18.714,6.571H3.286A1.286,1.286,0,0,0,2,7.857V18.143a1.286,1.286,0,0,0,1.286,1.286H18.714A1.286,1.286,0,0,0,20,18.143V7.857A1.286,1.286,0,0,0,18.714,6.571Zm0,1.286V18.143H3.286V7.857Z" transform="translate(1150 461)" fill="#1f5260" stroke="#1f5260" stroke-width="0.3"/>
    </g>
  </g>
</svg>
