<svg xmlns="http://www.w3.org/2000/svg" width="18.917" height="18.927" viewBox="0 0 18.917 18.927">
  <path id="_3994415_account_avatar_person_profile_user_icon" data-name="3994415_account_avatar_person_profile_user_icon" d="M13.669,10.009a5.911,5.911,0,1,0-8.421,0A8.275,8.275,0,0,0,0,17.693a1.182,1.182,0,0,0,1.182,1.182H17.734a1.182,1.182,0,0,0,1.182-1.182A8.275,8.275,0,0,0,13.669,10.009ZM9.458,2.323A3.547,3.547,0,1,1,5.911,5.87,3.547,3.547,0,0,1,9.458,2.323ZM2.482,16.511a5.924,5.924,0,0,1,5.794-4.729h2.365a5.924,5.924,0,0,1,5.794,4.729Z" transform="translate(0 0.052)" fill="#1f5260"/>
</svg>
