<svg xmlns="http://www.w3.org/2000/svg" width="21.2" height="21.2" viewBox="0 0 21.2 21.2">
  <g id="_7124027_cog_icon" data-name="7124027_cog_icon" transform="translate(-1.9 -1.9)">
    <path id="Path_7" data-name="Path 7" d="M10.732,4.39a1.82,1.82,0,0,1,3.537,0,1.82,1.82,0,0,0,2.715,1.125,1.82,1.82,0,0,1,2.5,2.5,1.82,1.82,0,0,0,1.125,2.715,1.82,1.82,0,0,1,0,3.537,1.82,1.82,0,0,0-1.125,2.715,1.82,1.82,0,0,1-2.5,2.5,1.82,1.82,0,0,0-2.715,1.125,1.82,1.82,0,0,1-3.537,0,1.82,1.82,0,0,0-2.715-1.125,1.82,1.82,0,0,1-2.5-2.5A1.82,1.82,0,0,0,4.39,14.268a1.82,1.82,0,0,1,0-3.537A1.82,1.82,0,0,0,5.515,8.016a1.82,1.82,0,0,1,2.5-2.5A1.82,1.82,0,0,0,10.732,4.39Z" transform="translate(0 0)" fill="none" stroke="#1f5260" stroke-linecap="round" stroke-linejoin="round" stroke-width="2.2"/>
    <path id="Path_8" data-name="Path 8" d="M15.333,12.167A3.167,3.167,0,1,1,12.167,9,3.167,3.167,0,0,1,15.333,12.167Z" transform="translate(0.333 0.333)" fill="none" stroke="#1f5260" stroke-linecap="round" stroke-linejoin="round" stroke-width="2.2"/>
  </g>
</svg>
